%TF.GenerationSoftware,KiCad,Pcbnew,(7.0.0)*%
%TF.CreationDate,2023-03-06T20:11:15+02:00*%
%TF.ProjectId,Oscilator,4f736369-6c61-4746-9f72-2e6b69636164,rev?*%
%TF.SameCoordinates,Original*%
%TF.FileFunction,Legend,Top*%
%TF.FilePolarity,Positive*%
%FSLAX46Y46*%
G04 Gerber Fmt 4.6, Leading zero omitted, Abs format (unit mm)*
G04 Created by KiCad (PCBNEW (7.0.0)) date 2023-03-06 20:11:15*
%MOMM*%
%LPD*%
G01*
G04 APERTURE LIST*
%ADD10C,0.300000*%
%ADD11C,0.150000*%
%ADD12C,0.120000*%
G04 APERTURE END LIST*
D10*
X129892857Y-52801071D02*
X130178571Y-52801071D01*
X130178571Y-52801071D02*
X130321428Y-52872500D01*
X130321428Y-52872500D02*
X130464285Y-53015357D01*
X130464285Y-53015357D02*
X130535714Y-53301071D01*
X130535714Y-53301071D02*
X130535714Y-53801071D01*
X130535714Y-53801071D02*
X130464285Y-54086785D01*
X130464285Y-54086785D02*
X130321428Y-54229642D01*
X130321428Y-54229642D02*
X130178571Y-54301071D01*
X130178571Y-54301071D02*
X129892857Y-54301071D01*
X129892857Y-54301071D02*
X129750000Y-54229642D01*
X129750000Y-54229642D02*
X129607142Y-54086785D01*
X129607142Y-54086785D02*
X129535714Y-53801071D01*
X129535714Y-53801071D02*
X129535714Y-53301071D01*
X129535714Y-53301071D02*
X129607142Y-53015357D01*
X129607142Y-53015357D02*
X129750000Y-52872500D01*
X129750000Y-52872500D02*
X129892857Y-52801071D01*
X131107143Y-54229642D02*
X131250000Y-54301071D01*
X131250000Y-54301071D02*
X131535714Y-54301071D01*
X131535714Y-54301071D02*
X131678571Y-54229642D01*
X131678571Y-54229642D02*
X131750000Y-54086785D01*
X131750000Y-54086785D02*
X131750000Y-54015357D01*
X131750000Y-54015357D02*
X131678571Y-53872500D01*
X131678571Y-53872500D02*
X131535714Y-53801071D01*
X131535714Y-53801071D02*
X131321429Y-53801071D01*
X131321429Y-53801071D02*
X131178571Y-53729642D01*
X131178571Y-53729642D02*
X131107143Y-53586785D01*
X131107143Y-53586785D02*
X131107143Y-53515357D01*
X131107143Y-53515357D02*
X131178571Y-53372500D01*
X131178571Y-53372500D02*
X131321429Y-53301071D01*
X131321429Y-53301071D02*
X131535714Y-53301071D01*
X131535714Y-53301071D02*
X131678571Y-53372500D01*
X133035715Y-54229642D02*
X132892857Y-54301071D01*
X132892857Y-54301071D02*
X132607143Y-54301071D01*
X132607143Y-54301071D02*
X132464286Y-54229642D01*
X132464286Y-54229642D02*
X132392857Y-54158214D01*
X132392857Y-54158214D02*
X132321429Y-54015357D01*
X132321429Y-54015357D02*
X132321429Y-53586785D01*
X132321429Y-53586785D02*
X132392857Y-53443928D01*
X132392857Y-53443928D02*
X132464286Y-53372500D01*
X132464286Y-53372500D02*
X132607143Y-53301071D01*
X132607143Y-53301071D02*
X132892857Y-53301071D01*
X132892857Y-53301071D02*
X133035715Y-53372500D01*
X133678571Y-54301071D02*
X133678571Y-53301071D01*
X133678571Y-52801071D02*
X133607143Y-52872500D01*
X133607143Y-52872500D02*
X133678571Y-52943928D01*
X133678571Y-52943928D02*
X133750000Y-52872500D01*
X133750000Y-52872500D02*
X133678571Y-52801071D01*
X133678571Y-52801071D02*
X133678571Y-52943928D01*
X134607143Y-54301071D02*
X134464286Y-54229642D01*
X134464286Y-54229642D02*
X134392857Y-54086785D01*
X134392857Y-54086785D02*
X134392857Y-52801071D01*
X135821429Y-54301071D02*
X135821429Y-53515357D01*
X135821429Y-53515357D02*
X135750000Y-53372500D01*
X135750000Y-53372500D02*
X135607143Y-53301071D01*
X135607143Y-53301071D02*
X135321429Y-53301071D01*
X135321429Y-53301071D02*
X135178571Y-53372500D01*
X135821429Y-54229642D02*
X135678571Y-54301071D01*
X135678571Y-54301071D02*
X135321429Y-54301071D01*
X135321429Y-54301071D02*
X135178571Y-54229642D01*
X135178571Y-54229642D02*
X135107143Y-54086785D01*
X135107143Y-54086785D02*
X135107143Y-53943928D01*
X135107143Y-53943928D02*
X135178571Y-53801071D01*
X135178571Y-53801071D02*
X135321429Y-53729642D01*
X135321429Y-53729642D02*
X135678571Y-53729642D01*
X135678571Y-53729642D02*
X135821429Y-53658214D01*
X136321429Y-53301071D02*
X136892857Y-53301071D01*
X136535714Y-52801071D02*
X136535714Y-54086785D01*
X136535714Y-54086785D02*
X136607143Y-54229642D01*
X136607143Y-54229642D02*
X136750000Y-54301071D01*
X136750000Y-54301071D02*
X136892857Y-54301071D01*
X137607143Y-54301071D02*
X137464286Y-54229642D01*
X137464286Y-54229642D02*
X137392857Y-54158214D01*
X137392857Y-54158214D02*
X137321429Y-54015357D01*
X137321429Y-54015357D02*
X137321429Y-53586785D01*
X137321429Y-53586785D02*
X137392857Y-53443928D01*
X137392857Y-53443928D02*
X137464286Y-53372500D01*
X137464286Y-53372500D02*
X137607143Y-53301071D01*
X137607143Y-53301071D02*
X137821429Y-53301071D01*
X137821429Y-53301071D02*
X137964286Y-53372500D01*
X137964286Y-53372500D02*
X138035715Y-53443928D01*
X138035715Y-53443928D02*
X138107143Y-53586785D01*
X138107143Y-53586785D02*
X138107143Y-54015357D01*
X138107143Y-54015357D02*
X138035715Y-54158214D01*
X138035715Y-54158214D02*
X137964286Y-54229642D01*
X137964286Y-54229642D02*
X137821429Y-54301071D01*
X137821429Y-54301071D02*
X137607143Y-54301071D01*
X138750000Y-54301071D02*
X138750000Y-53301071D01*
X138750000Y-53586785D02*
X138821429Y-53443928D01*
X138821429Y-53443928D02*
X138892858Y-53372500D01*
X138892858Y-53372500D02*
X139035715Y-53301071D01*
X139035715Y-53301071D02*
X139178572Y-53301071D01*
X141435714Y-54301071D02*
X140935714Y-53586785D01*
X140578571Y-54301071D02*
X140578571Y-52801071D01*
X140578571Y-52801071D02*
X141150000Y-52801071D01*
X141150000Y-52801071D02*
X141292857Y-52872500D01*
X141292857Y-52872500D02*
X141364286Y-52943928D01*
X141364286Y-52943928D02*
X141435714Y-53086785D01*
X141435714Y-53086785D02*
X141435714Y-53301071D01*
X141435714Y-53301071D02*
X141364286Y-53443928D01*
X141364286Y-53443928D02*
X141292857Y-53515357D01*
X141292857Y-53515357D02*
X141150000Y-53586785D01*
X141150000Y-53586785D02*
X140578571Y-53586785D01*
X142935714Y-54158214D02*
X142864286Y-54229642D01*
X142864286Y-54229642D02*
X142650000Y-54301071D01*
X142650000Y-54301071D02*
X142507143Y-54301071D01*
X142507143Y-54301071D02*
X142292857Y-54229642D01*
X142292857Y-54229642D02*
X142150000Y-54086785D01*
X142150000Y-54086785D02*
X142078571Y-53943928D01*
X142078571Y-53943928D02*
X142007143Y-53658214D01*
X142007143Y-53658214D02*
X142007143Y-53443928D01*
X142007143Y-53443928D02*
X142078571Y-53158214D01*
X142078571Y-53158214D02*
X142150000Y-53015357D01*
X142150000Y-53015357D02*
X142292857Y-52872500D01*
X142292857Y-52872500D02*
X142507143Y-52801071D01*
X142507143Y-52801071D02*
X142650000Y-52801071D01*
X142650000Y-52801071D02*
X142864286Y-52872500D01*
X142864286Y-52872500D02*
X142935714Y-52943928D01*
X145121429Y-54229642D02*
X144978571Y-54301071D01*
X144978571Y-54301071D02*
X144692857Y-54301071D01*
X144692857Y-54301071D02*
X144550000Y-54229642D01*
X144550000Y-54229642D02*
X144478571Y-54158214D01*
X144478571Y-54158214D02*
X144407143Y-54015357D01*
X144407143Y-54015357D02*
X144407143Y-53586785D01*
X144407143Y-53586785D02*
X144478571Y-53443928D01*
X144478571Y-53443928D02*
X144550000Y-53372500D01*
X144550000Y-53372500D02*
X144692857Y-53301071D01*
X144692857Y-53301071D02*
X144978571Y-53301071D01*
X144978571Y-53301071D02*
X145121429Y-53372500D01*
X146407143Y-53301071D02*
X146407143Y-54301071D01*
X145764285Y-53301071D02*
X145764285Y-54086785D01*
X145764285Y-54086785D02*
X145835714Y-54229642D01*
X145835714Y-54229642D02*
X145978571Y-54301071D01*
X145978571Y-54301071D02*
X146192857Y-54301071D01*
X146192857Y-54301071D02*
X146335714Y-54229642D01*
X146335714Y-54229642D02*
X146407143Y-54158214D01*
X148021428Y-54301071D02*
X148021428Y-53301071D01*
X148021428Y-53586785D02*
X148092857Y-53443928D01*
X148092857Y-53443928D02*
X148164286Y-53372500D01*
X148164286Y-53372500D02*
X148307143Y-53301071D01*
X148307143Y-53301071D02*
X148450000Y-53301071D01*
X149521428Y-54229642D02*
X149378571Y-54301071D01*
X149378571Y-54301071D02*
X149092857Y-54301071D01*
X149092857Y-54301071D02*
X148949999Y-54229642D01*
X148949999Y-54229642D02*
X148878571Y-54086785D01*
X148878571Y-54086785D02*
X148878571Y-53515357D01*
X148878571Y-53515357D02*
X148949999Y-53372500D01*
X148949999Y-53372500D02*
X149092857Y-53301071D01*
X149092857Y-53301071D02*
X149378571Y-53301071D01*
X149378571Y-53301071D02*
X149521428Y-53372500D01*
X149521428Y-53372500D02*
X149592857Y-53515357D01*
X149592857Y-53515357D02*
X149592857Y-53658214D01*
X149592857Y-53658214D02*
X148878571Y-53801071D01*
X150021428Y-53301071D02*
X150592856Y-53301071D01*
X150235713Y-52801071D02*
X150235713Y-54086785D01*
X150235713Y-54086785D02*
X150307142Y-54229642D01*
X150307142Y-54229642D02*
X150449999Y-54301071D01*
X150449999Y-54301071D02*
X150592856Y-54301071D01*
X151664285Y-54229642D02*
X151521428Y-54301071D01*
X151521428Y-54301071D02*
X151235714Y-54301071D01*
X151235714Y-54301071D02*
X151092856Y-54229642D01*
X151092856Y-54229642D02*
X151021428Y-54086785D01*
X151021428Y-54086785D02*
X151021428Y-53515357D01*
X151021428Y-53515357D02*
X151092856Y-53372500D01*
X151092856Y-53372500D02*
X151235714Y-53301071D01*
X151235714Y-53301071D02*
X151521428Y-53301071D01*
X151521428Y-53301071D02*
X151664285Y-53372500D01*
X151664285Y-53372500D02*
X151735714Y-53515357D01*
X151735714Y-53515357D02*
X151735714Y-53658214D01*
X151735714Y-53658214D02*
X151021428Y-53801071D01*
X153021428Y-54301071D02*
X153021428Y-53515357D01*
X153021428Y-53515357D02*
X152949999Y-53372500D01*
X152949999Y-53372500D02*
X152807142Y-53301071D01*
X152807142Y-53301071D02*
X152521428Y-53301071D01*
X152521428Y-53301071D02*
X152378570Y-53372500D01*
X153021428Y-54229642D02*
X152878570Y-54301071D01*
X152878570Y-54301071D02*
X152521428Y-54301071D01*
X152521428Y-54301071D02*
X152378570Y-54229642D01*
X152378570Y-54229642D02*
X152307142Y-54086785D01*
X152307142Y-54086785D02*
X152307142Y-53943928D01*
X152307142Y-53943928D02*
X152378570Y-53801071D01*
X152378570Y-53801071D02*
X152521428Y-53729642D01*
X152521428Y-53729642D02*
X152878570Y-53729642D01*
X152878570Y-53729642D02*
X153021428Y-53658214D01*
X154492856Y-52801071D02*
X154849999Y-54301071D01*
X154849999Y-54301071D02*
X155135713Y-53229642D01*
X155135713Y-53229642D02*
X155421428Y-54301071D01*
X155421428Y-54301071D02*
X155778571Y-52801071D01*
X156349999Y-54301071D02*
X156349999Y-53301071D01*
X156349999Y-52801071D02*
X156278571Y-52872500D01*
X156278571Y-52872500D02*
X156349999Y-52943928D01*
X156349999Y-52943928D02*
X156421428Y-52872500D01*
X156421428Y-52872500D02*
X156349999Y-52801071D01*
X156349999Y-52801071D02*
X156349999Y-52943928D01*
X157635714Y-54229642D02*
X157492857Y-54301071D01*
X157492857Y-54301071D02*
X157207143Y-54301071D01*
X157207143Y-54301071D02*
X157064285Y-54229642D01*
X157064285Y-54229642D02*
X156992857Y-54086785D01*
X156992857Y-54086785D02*
X156992857Y-53515357D01*
X156992857Y-53515357D02*
X157064285Y-53372500D01*
X157064285Y-53372500D02*
X157207143Y-53301071D01*
X157207143Y-53301071D02*
X157492857Y-53301071D01*
X157492857Y-53301071D02*
X157635714Y-53372500D01*
X157635714Y-53372500D02*
X157707143Y-53515357D01*
X157707143Y-53515357D02*
X157707143Y-53658214D01*
X157707143Y-53658214D02*
X156992857Y-53801071D01*
X158349999Y-53301071D02*
X158349999Y-54301071D01*
X158349999Y-53443928D02*
X158421428Y-53372500D01*
X158421428Y-53372500D02*
X158564285Y-53301071D01*
X158564285Y-53301071D02*
X158778571Y-53301071D01*
X158778571Y-53301071D02*
X158921428Y-53372500D01*
X158921428Y-53372500D02*
X158992857Y-53515357D01*
X158992857Y-53515357D02*
X158992857Y-54301071D01*
X187476190Y-101080000D02*
X187285714Y-100984761D01*
X187285714Y-100984761D02*
X187000000Y-100984761D01*
X187000000Y-100984761D02*
X186714285Y-101080000D01*
X186714285Y-101080000D02*
X186523809Y-101270476D01*
X186523809Y-101270476D02*
X186428571Y-101460952D01*
X186428571Y-101460952D02*
X186333333Y-101841904D01*
X186333333Y-101841904D02*
X186333333Y-102127619D01*
X186333333Y-102127619D02*
X186428571Y-102508571D01*
X186428571Y-102508571D02*
X186523809Y-102699047D01*
X186523809Y-102699047D02*
X186714285Y-102889523D01*
X186714285Y-102889523D02*
X187000000Y-102984761D01*
X187000000Y-102984761D02*
X187190476Y-102984761D01*
X187190476Y-102984761D02*
X187476190Y-102889523D01*
X187476190Y-102889523D02*
X187571428Y-102794285D01*
X187571428Y-102794285D02*
X187571428Y-102127619D01*
X187571428Y-102127619D02*
X187190476Y-102127619D01*
X188428571Y-102984761D02*
X188428571Y-100984761D01*
X188428571Y-100984761D02*
X189571428Y-102984761D01*
X189571428Y-102984761D02*
X189571428Y-100984761D01*
X190523809Y-102984761D02*
X190523809Y-100984761D01*
X190523809Y-100984761D02*
X190999999Y-100984761D01*
X190999999Y-100984761D02*
X191285714Y-101080000D01*
X191285714Y-101080000D02*
X191476190Y-101270476D01*
X191476190Y-101270476D02*
X191571428Y-101460952D01*
X191571428Y-101460952D02*
X191666666Y-101841904D01*
X191666666Y-101841904D02*
X191666666Y-102127619D01*
X191666666Y-102127619D02*
X191571428Y-102508571D01*
X191571428Y-102508571D02*
X191476190Y-102699047D01*
X191476190Y-102699047D02*
X191285714Y-102889523D01*
X191285714Y-102889523D02*
X190999999Y-102984761D01*
X190999999Y-102984761D02*
X190523809Y-102984761D01*
X188738095Y-111222857D02*
X190261905Y-111222857D01*
X188738095Y-77222857D02*
X190261905Y-77222857D01*
X189500000Y-77984761D02*
X189500000Y-76460952D01*
D11*
%TO.C,TP1*%
X163488095Y-96867380D02*
X164059523Y-96867380D01*
X163773809Y-97867380D02*
X163773809Y-96867380D01*
X164392857Y-97867380D02*
X164392857Y-96867380D01*
X164392857Y-96867380D02*
X164773809Y-96867380D01*
X164773809Y-96867380D02*
X164869047Y-96915000D01*
X164869047Y-96915000D02*
X164916666Y-96962619D01*
X164916666Y-96962619D02*
X164964285Y-97057857D01*
X164964285Y-97057857D02*
X164964285Y-97200714D01*
X164964285Y-97200714D02*
X164916666Y-97295952D01*
X164916666Y-97295952D02*
X164869047Y-97343571D01*
X164869047Y-97343571D02*
X164773809Y-97391190D01*
X164773809Y-97391190D02*
X164392857Y-97391190D01*
X165916666Y-97867380D02*
X165345238Y-97867380D01*
X165630952Y-97867380D02*
X165630952Y-96867380D01*
X165630952Y-96867380D02*
X165535714Y-97010238D01*
X165535714Y-97010238D02*
X165440476Y-97105476D01*
X165440476Y-97105476D02*
X165345238Y-97153095D01*
X166500000Y-94500000D02*
G75*
G03*
X166500000Y-94500000I-1750000J0D01*
G01*
D12*
%TO.C,R10*%
X61500000Y-121540000D02*
X61500000Y-120770000D01*
X60130000Y-120770000D02*
X62870000Y-120770000D01*
X62870000Y-120770000D02*
X62870000Y-114230000D01*
X60130000Y-114230000D02*
X60130000Y-120770000D01*
X62870000Y-114230000D02*
X60130000Y-114230000D01*
X61500000Y-113460000D02*
X61500000Y-114230000D01*
%TO.C,J3*%
X193465000Y-100300000D02*
X194205000Y-100300000D01*
X194205000Y-100300000D02*
X194205000Y-99800000D01*
X184044000Y-100060000D02*
X193965000Y-100060000D01*
X184044000Y-100060000D02*
X184044000Y-89940000D01*
X187004000Y-100060000D02*
X187004000Y-89940000D01*
X191905000Y-100060000D02*
X191905000Y-89940000D01*
X193405000Y-100060000D02*
X193405000Y-89940000D01*
X193965000Y-100060000D02*
X193965000Y-89940000D01*
X190328000Y-93727000D02*
X190374000Y-93774000D01*
X190544000Y-93534000D02*
X190579000Y-93569000D01*
X188030000Y-91430000D02*
X188066000Y-91465000D01*
X188236000Y-91225000D02*
X188282000Y-91272000D01*
X184044000Y-89940000D02*
X193965000Y-89940000D01*
X188621001Y-99034999D02*
G75*
G03*
X189988042Y-99035426I684000J1534992D01*
G01*
X187770001Y-96816001D02*
G75*
G03*
X187769574Y-98183042I1534992J-684000D01*
G01*
X190839999Y-98184000D02*
G75*
G03*
X190985252Y-97471195I-1535000J683999D01*
G01*
X190984999Y-97500000D02*
G75*
G03*
X190839755Y-96816682I-1679999J0D01*
G01*
X189989000Y-95965000D02*
G75*
G03*
X188621958Y-95964574I-684000J-1535000D01*
G01*
X190985000Y-92500000D02*
G75*
G03*
X190985000Y-92500000I-1680000J0D01*
G01*
%TO.C,C1*%
X71620000Y-117500000D02*
G75*
G03*
X71620000Y-117500000I-2620000J0D01*
G01*
%TO.C,C4*%
X159370000Y-127000000D02*
G75*
G03*
X159370000Y-127000000I-2620000J0D01*
G01*
%TO.C,R8*%
X153250000Y-90220000D02*
X153250000Y-89370000D01*
X150630000Y-89370000D02*
X155870000Y-89370000D01*
X155870000Y-89370000D02*
X155870000Y-73630000D01*
X150630000Y-73630000D02*
X150630000Y-89370000D01*
X155870000Y-73630000D02*
X150630000Y-73630000D01*
X153250000Y-72780000D02*
X153250000Y-73630000D01*
%TO.C,D3*%
X165340000Y-62750000D02*
X166360000Y-62750000D01*
X166360000Y-61280000D02*
X166360000Y-64220000D01*
X166360000Y-64220000D02*
X171800000Y-64220000D01*
X167140000Y-61280000D02*
X167140000Y-64220000D01*
X167260000Y-61280000D02*
X167260000Y-64220000D01*
X167380000Y-61280000D02*
X167380000Y-64220000D01*
X171800000Y-61280000D02*
X166360000Y-61280000D01*
X171800000Y-64220000D02*
X171800000Y-61280000D01*
X172820000Y-62750000D02*
X171800000Y-62750000D01*
%TO.C,R9*%
X153250000Y-116470000D02*
X153250000Y-115620000D01*
X150630000Y-115620000D02*
X155870000Y-115620000D01*
X155870000Y-115620000D02*
X155870000Y-99880000D01*
X150630000Y-99880000D02*
X150630000Y-115620000D01*
X155870000Y-99880000D02*
X150630000Y-99880000D01*
X153250000Y-99030000D02*
X153250000Y-99880000D01*
%TO.C,Q2*%
X144245000Y-120840000D02*
X140755000Y-120840000D01*
X144245000Y-120840000D02*
X144245000Y-129080000D01*
X140755000Y-120840000D02*
X140755000Y-129080000D01*
X144245000Y-123360000D02*
X143175000Y-123360000D01*
X141075000Y-123360000D02*
X140755000Y-123360000D01*
X144245000Y-126561000D02*
X142665000Y-126561000D01*
X141585000Y-126561000D02*
X140755000Y-126561000D01*
X144245000Y-129080000D02*
X140755000Y-129080000D01*
%TO.C,R7*%
X132499604Y-73160184D02*
X132499604Y-72390184D01*
X131129604Y-72390184D02*
X133869604Y-72390184D01*
X133869604Y-72390184D02*
X133869604Y-65850184D01*
X131129604Y-65850184D02*
X131129604Y-72390184D01*
X133869604Y-65850184D02*
X131129604Y-65850184D01*
X132499604Y-65080184D02*
X132499604Y-65850184D01*
%TO.C,R3*%
X88697722Y-106474740D02*
X89467722Y-106474740D01*
X89467722Y-105104740D02*
X89467722Y-107844740D01*
X89467722Y-107844740D02*
X96007722Y-107844740D01*
X96007722Y-105104740D02*
X89467722Y-105104740D01*
X96007722Y-107844740D02*
X96007722Y-105104740D01*
X96777722Y-106474740D02*
X96007722Y-106474740D01*
%TO.C,D5*%
X132500000Y-104770000D02*
X132500000Y-104120000D01*
X131380000Y-104120000D02*
X133620000Y-104120000D01*
X133620000Y-104120000D02*
X133620000Y-99880000D01*
X131380000Y-103520000D02*
X133620000Y-103520000D01*
X131380000Y-103400000D02*
X133620000Y-103400000D01*
X131380000Y-103280000D02*
X133620000Y-103280000D01*
X131380000Y-99880000D02*
X131380000Y-104120000D01*
X133620000Y-99880000D02*
X131380000Y-99880000D01*
X132500000Y-99230000D02*
X132500000Y-99880000D01*
%TO.C,C2*%
X151370000Y-60850609D02*
X150925000Y-60850609D01*
X151370000Y-60850609D02*
X151370000Y-67090609D01*
X149075000Y-60850609D02*
X148630000Y-60850609D01*
X148630000Y-60850609D02*
X148630000Y-67090609D01*
X151370000Y-67090609D02*
X150925000Y-67090609D01*
X149075000Y-67090609D02*
X148630000Y-67090609D01*
%TO.C,Rr3*%
X95250000Y-85290000D02*
X95250000Y-84520000D01*
X93880000Y-84520000D02*
X96620000Y-84520000D01*
X96620000Y-84520000D02*
X96620000Y-77980000D01*
X93880000Y-77980000D02*
X93880000Y-84520000D01*
X96620000Y-77980000D02*
X93880000Y-77980000D01*
X95250000Y-77210000D02*
X95250000Y-77980000D01*
%TO.C,C5*%
X148630000Y-128620000D02*
X149075000Y-128620000D01*
X148630000Y-128620000D02*
X148630000Y-122380000D01*
X150925000Y-128620000D02*
X151370000Y-128620000D01*
X151370000Y-128620000D02*
X151370000Y-122380000D01*
X148630000Y-122380000D02*
X149075000Y-122380000D01*
X150925000Y-122380000D02*
X151370000Y-122380000D01*
%TO.C,D4*%
X132500000Y-87520000D02*
X132500000Y-86870000D01*
X131380000Y-86870000D02*
X133620000Y-86870000D01*
X133620000Y-86870000D02*
X133620000Y-82630000D01*
X131380000Y-86270000D02*
X133620000Y-86270000D01*
X131380000Y-86150000D02*
X133620000Y-86150000D01*
X131380000Y-86030000D02*
X133620000Y-86030000D01*
X131380000Y-82630000D02*
X131380000Y-86870000D01*
X133620000Y-82630000D02*
X131380000Y-82630000D01*
X132500000Y-81980000D02*
X132500000Y-82630000D01*
%TO.C,Rr1*%
X101765084Y-97287824D02*
X101765084Y-98057824D01*
X103135084Y-98057824D02*
X100395084Y-98057824D01*
X100395084Y-98057824D02*
X100395084Y-104597824D01*
X103135084Y-104597824D02*
X103135084Y-98057824D01*
X100395084Y-104597824D02*
X103135084Y-104597824D01*
X101765084Y-105367824D02*
X101765084Y-104597824D01*
%TO.C,Q3*%
X74710000Y-112800000D02*
X74710000Y-109200000D01*
X70260000Y-111000000D02*
G75*
G03*
X74698478Y-112838478I2600000J0D01*
G01*
X74698478Y-109161522D02*
G75*
G03*
X70260000Y-111000000I-1838478J-1838478D01*
G01*
%TO.C,J4*%
X193465000Y-124300000D02*
X194205000Y-124300000D01*
X194205000Y-124300000D02*
X194205000Y-123800000D01*
X184044000Y-124060000D02*
X193965000Y-124060000D01*
X184044000Y-124060000D02*
X184044000Y-113940000D01*
X187004000Y-124060000D02*
X187004000Y-113940000D01*
X191905000Y-124060000D02*
X191905000Y-113940000D01*
X193405000Y-124060000D02*
X193405000Y-113940000D01*
X193965000Y-124060000D02*
X193965000Y-113940000D01*
X190328000Y-117727000D02*
X190374000Y-117774000D01*
X190544000Y-117534000D02*
X190579000Y-117569000D01*
X188030000Y-115430000D02*
X188066000Y-115465000D01*
X188236000Y-115225000D02*
X188282000Y-115272000D01*
X184044000Y-113940000D02*
X193965000Y-113940000D01*
X188621001Y-123034999D02*
G75*
G03*
X189988042Y-123035426I684000J1534992D01*
G01*
X187770001Y-120816001D02*
G75*
G03*
X187769574Y-122183042I1534992J-684000D01*
G01*
X190839999Y-122184000D02*
G75*
G03*
X190985252Y-121471195I-1535000J683999D01*
G01*
X190984999Y-121500000D02*
G75*
G03*
X190839755Y-120816682I-1679999J0D01*
G01*
X189989000Y-119965000D02*
G75*
G03*
X188621958Y-119964574I-684000J-1535000D01*
G01*
X190985000Y-116500000D02*
G75*
G03*
X190985000Y-116500000I-1680000J0D01*
G01*
%TO.C,R6*%
X132533442Y-123903720D02*
X132533442Y-123133720D01*
X131163442Y-123133720D02*
X133903442Y-123133720D01*
X133903442Y-123133720D02*
X133903442Y-116593720D01*
X131163442Y-116593720D02*
X131163442Y-123133720D01*
X133903442Y-116593720D02*
X131163442Y-116593720D01*
X132533442Y-115823720D02*
X132533442Y-116593720D01*
%TO.C,U1*%
X110360000Y-92370000D02*
X110360000Y-102650000D01*
X110360000Y-102650000D02*
X115660000Y-102650000D01*
X112010000Y-92370000D02*
X110360000Y-92370000D01*
X115660000Y-92370000D02*
X114010000Y-92370000D01*
X115660000Y-102650000D02*
X115660000Y-92370000D01*
X112010000Y-92370000D02*
G75*
G03*
X114010000Y-92370000I1000000J0D01*
G01*
%TO.C,R5*%
X127750000Y-89460000D02*
X127750000Y-90230000D01*
X129120000Y-90230000D02*
X126380000Y-90230000D01*
X126380000Y-90230000D02*
X126380000Y-96770000D01*
X129120000Y-96770000D02*
X129120000Y-90230000D01*
X126380000Y-96770000D02*
X129120000Y-96770000D01*
X127750000Y-97540000D02*
X127750000Y-96770000D01*
%TO.C,J1*%
X78770484Y-97746898D02*
X78770484Y-96416898D01*
X80100484Y-97746898D02*
X78770484Y-97746898D01*
X81370484Y-97746898D02*
X89050484Y-97746898D01*
X81370484Y-97746898D02*
X81370484Y-95086898D01*
X89050484Y-97746898D02*
X89050484Y-95086898D01*
X81370484Y-95086898D02*
X89050484Y-95086898D01*
%TO.C,R2*%
X90540000Y-117500000D02*
X89770000Y-117500000D01*
X89770000Y-118870000D02*
X89770000Y-116130000D01*
X89770000Y-116130000D02*
X83230000Y-116130000D01*
X83230000Y-118870000D02*
X89770000Y-118870000D01*
X83230000Y-116130000D02*
X83230000Y-118870000D01*
X82460000Y-117500000D02*
X83230000Y-117500000D01*
%TO.C,Rr2*%
X107750000Y-85290000D02*
X107750000Y-84520000D01*
X106380000Y-84520000D02*
X109120000Y-84520000D01*
X109120000Y-84520000D02*
X109120000Y-77980000D01*
X106380000Y-77980000D02*
X106380000Y-84520000D01*
X109120000Y-77980000D02*
X106380000Y-77980000D01*
X107750000Y-77210000D02*
X107750000Y-77980000D01*
%TO.C,J2*%
X193715000Y-75300000D02*
X194455000Y-75300000D01*
X194455000Y-75300000D02*
X194455000Y-74800000D01*
X184294000Y-75060000D02*
X194215000Y-75060000D01*
X184294000Y-75060000D02*
X184294000Y-64940000D01*
X187254000Y-75060000D02*
X187254000Y-64940000D01*
X192155000Y-75060000D02*
X192155000Y-64940000D01*
X193655000Y-75060000D02*
X193655000Y-64940000D01*
X194215000Y-75060000D02*
X194215000Y-64940000D01*
X190578000Y-68727000D02*
X190624000Y-68774000D01*
X190794000Y-68534000D02*
X190829000Y-68569000D01*
X188280000Y-66430000D02*
X188316000Y-66465000D01*
X188486000Y-66225000D02*
X188532000Y-66272000D01*
X184294000Y-64940000D02*
X194215000Y-64940000D01*
X188871001Y-74034999D02*
G75*
G03*
X190238042Y-74035426I684000J1534992D01*
G01*
X188020001Y-71816001D02*
G75*
G03*
X188019574Y-73183042I1534992J-684000D01*
G01*
X191089999Y-73184000D02*
G75*
G03*
X191235252Y-72471195I-1535000J683999D01*
G01*
X191234999Y-72500000D02*
G75*
G03*
X191089755Y-71816682I-1679999J0D01*
G01*
X190239000Y-70965000D02*
G75*
G03*
X188871958Y-70964574I-684000J-1535000D01*
G01*
X191235000Y-67500000D02*
G75*
G03*
X191235000Y-67500000I-1680000J0D01*
G01*
%TO.C,C3*%
X159370000Y-63750000D02*
G75*
G03*
X159370000Y-63750000I-2620000J0D01*
G01*
%TO.C,D1*%
X102770000Y-117500000D02*
X102120000Y-117500000D01*
X102120000Y-118620000D02*
X102120000Y-116380000D01*
X102120000Y-116380000D02*
X97880000Y-116380000D01*
X101520000Y-118620000D02*
X101520000Y-116380000D01*
X101400000Y-118620000D02*
X101400000Y-116380000D01*
X101280000Y-118620000D02*
X101280000Y-116380000D01*
X97880000Y-118620000D02*
X102120000Y-118620000D01*
X97880000Y-116380000D02*
X97880000Y-118620000D01*
X97230000Y-117500000D02*
X97880000Y-117500000D01*
%TO.C,D2*%
X172820000Y-128000000D02*
X171800000Y-128000000D01*
X171800000Y-129470000D02*
X171800000Y-126530000D01*
X171800000Y-126530000D02*
X166360000Y-126530000D01*
X171020000Y-129470000D02*
X171020000Y-126530000D01*
X170900000Y-129470000D02*
X170900000Y-126530000D01*
X170780000Y-129470000D02*
X170780000Y-126530000D01*
X166360000Y-129470000D02*
X171800000Y-129470000D01*
X166360000Y-126530000D02*
X166360000Y-129470000D01*
X165340000Y-128000000D02*
X166360000Y-128000000D01*
%TO.C,R1*%
X61500000Y-105540000D02*
X61500000Y-104770000D01*
X60130000Y-104770000D02*
X62870000Y-104770000D01*
X62870000Y-104770000D02*
X62870000Y-98230000D01*
X60130000Y-98230000D02*
X60130000Y-104770000D01*
X62870000Y-98230000D02*
X60130000Y-98230000D01*
X61500000Y-97460000D02*
X61500000Y-98230000D01*
%TO.C,Q1*%
X143495000Y-59920000D02*
X140005000Y-59920000D01*
X143495000Y-59920000D02*
X143495000Y-68160000D01*
X140005000Y-59920000D02*
X140005000Y-68160000D01*
X143495000Y-62440000D02*
X142425000Y-62440000D01*
X140325000Y-62440000D02*
X140005000Y-62440000D01*
X143495000Y-65641000D02*
X141915000Y-65641000D01*
X140835000Y-65641000D02*
X140005000Y-65641000D01*
X143495000Y-68160000D02*
X140005000Y-68160000D01*
%TO.C,R4*%
X111500000Y-125040000D02*
X111500000Y-124270000D01*
X110130000Y-124270000D02*
X112870000Y-124270000D01*
X112870000Y-124270000D02*
X112870000Y-117730000D01*
X110130000Y-117730000D02*
X110130000Y-124270000D01*
X112870000Y-117730000D02*
X110130000Y-117730000D01*
X111500000Y-116960000D02*
X111500000Y-117730000D01*
%TD*%
M02*
