M48
; DRILL file {KiCad (7.0.0)} date Mon Mar  6 20:11:19 2023
; FORMAT={-:-/ absolute / metric / decimal}
; #@! TF.CreationDate,2023-03-06T20:11:19+02:00
; #@! TF.GenerationSoftware,Kicad,Pcbnew,(7.0.0)
; #@! TF.FileFunction,Plated,1,2,PTH
FMAT,2
METRIC
; #@! TA.AperFunction,Plated,PTH,ComponentDrill
T1C0.750
; #@! TA.AperFunction,Plated,PTH,ComponentDrill
T2C0.800
; #@! TA.AperFunction,Plated,PTH,ComponentDrill
T3C1.000
; #@! TA.AperFunction,Plated,PTH,ComponentDrill
T4C1.100
; #@! TA.AperFunction,Plated,PTH,ComponentDrill
T5C1.200
; #@! TA.AperFunction,Plated,PTH,ComponentDrill
T6C1.300
; #@! TA.AperFunction,Plated,PTH,ComponentDrill
T7C1.600
; #@! TA.AperFunction,Plated,PTH,ComponentDrill
T8C2.520
; #@! TA.AperFunction,Plated,PTH,ComponentDrill
T9C3.200
%
G90
G05
T1
X72.86Y-109.73
X72.86Y-111.0
X72.86Y-112.27
T2
X61.5Y-96.42
X61.5Y-106.58
X61.5Y-112.42
X61.5Y-122.58
X68.25Y-69.75
X69.0Y-116.5
X69.0Y-118.5
X74.136Y-60.05
X81.42Y-117.5
X86.636Y-60.05
X87.658Y-106.475
X88.25Y-69.75
X91.58Y-117.5
X95.25Y-76.17
X95.25Y-86.33
X96.19Y-117.5
X97.818Y-106.475
X101.765Y-96.248
X101.765Y-106.408
X102.0Y-69.75
X103.81Y-117.5
X103.909Y-60.042
X107.75Y-76.17
X107.75Y-86.33
X109.2Y-93.7
X109.2Y-96.24
X109.2Y-98.78
X109.2Y-101.32
X111.5Y-115.92
X111.5Y-126.08
X116.409Y-60.042
X116.82Y-93.7
X116.82Y-96.24
X116.82Y-98.78
X116.82Y-101.32
X122.0Y-69.75
X127.75Y-88.42
X127.75Y-98.58
X132.5Y-64.04
X132.5Y-74.2
X132.5Y-80.94
X132.5Y-88.56
X132.5Y-98.19
X132.5Y-105.81
X132.533Y-114.784
X132.533Y-124.944
X150.0Y-61.471
X150.0Y-66.471
X150.0Y-123.0
X150.0Y-128.0
X156.75Y-62.75
X156.75Y-64.75
X156.75Y-126.0
X156.75Y-128.0
T3
X80.1Y-96.417
X82.64Y-96.417
X85.18Y-96.417
X87.72Y-96.417
X141.375Y-61.5
X141.375Y-64.04
X141.375Y-66.58
X142.125Y-122.42
X142.125Y-124.96
X142.125Y-127.5
T4
X92.75Y-60.05
X92.75Y-63.25
X92.75Y-66.45
X97.75Y-60.05
X97.75Y-63.25
X97.75Y-66.45
X164.0Y-62.75
X164.0Y-128.0
X174.16Y-62.75
X174.16Y-128.0
T5
X90.788Y-111.086
X94.288Y-111.086
X97.788Y-111.086
X104.5Y-111.0
X108.0Y-111.0
X111.5Y-111.0
X153.25Y-71.34
X153.25Y-91.66
X153.25Y-97.59
X153.25Y-117.91
T6
X189.305Y-92.5
X189.305Y-97.5
X189.305Y-116.5
X189.305Y-121.5
X189.555Y-67.5
X189.555Y-72.5
T7
X164.75Y-94.5
T8
X68.25Y-82.75
X125.25Y-125.75
X164.75Y-119.25
T9
X61.6Y-56.1
X61.6Y-132.9
X188.4Y-56.1
X188.4Y-132.9
T0
M30
